# xmcd
#
# Track frame offsets:
#	150
#	19050
#	37602
#	49830
#	65584
#	81979
#	103200
#	118424
#	138859
#	152083
#	171164
#	190287
#	207646
#	223226
#
# Disc length: 3159 seconds
#
# Revision: 1
# Processed by: cddbd v1.5.1PL2 Copyright (c) Steve Scherf et al.
# Submitted via: audiograbber 1.83.01
#
DISCID=d10c550e
DTITLE=Various Artist - HH Country Vol 93
DYEAR=1999
DGENRE=Country
TTITLE0=Faith Hill - Breathe
TTITLE1=Clint Black - When I Said I Do
TTITLE2=Yankee Grey - All Things Considered
TTITLE3=Reba - What Do You Say
TTITLE4=Ty Herndon - Steam
TTITLE5=Brad Paisley - He Didn't Have To Be
TTITLE6=SheDaisy - This Woman Needs
TTITLE7=Tracy Byrd - Put Your Hand In Mine
TTITLE8=Shane Minor - Ordinary Love
TTITLE9=John Berry - Power Windows
TTITLE10=Sammy Kershaw - When You Love Someone
TTITLE11=Chely Wright - It Was
TTITLE12=Joe Diffie - The Quitting Kid
TTITLE13=Toby Keith - When Love Fades
EXTD=
EXTT0=
EXTT1=
EXTT2=
EXTT3=
EXTT4=
EXTT5=
EXTT6=
EXTT7=
EXTT8=
EXTT9=
EXTT10=
EXTT11=
EXTT12=
EXTT13=
PLAYORDER=
